HIERARCHY
ROOT Hips
{
	OFFSET 0.000000 8.830580 0.000000
	CHANNELS 6 Xposition Yposition Zposition Zrotation Yrotation Xrotation 
	JOINT Spine
	{
		OFFSET 0.000000 0.010000 0.000000
		CHANNELS 3 Zrotation Yrotation Xrotation
		JOINT Spine1
		{
			OFFSET 0.000000 2.459130 0.000000
			CHANNELS 3 Zrotation Yrotation Xrotation
			JOINT Neck
			{
				OFFSET 0.000000 2.484630 0.000000
				CHANNELS 3 Zrotation Yrotation Xrotation
				JOINT Head_virtual
				{
					OFFSET 0.000000 0.000000 0.000000
					CHANNELS 3 Zrotation Yrotation Xrotation
					JOINT Head
					{
						OFFSET 0.000000 0.927525 0.000000
						CHANNELS 3 Zrotation Yrotation Xrotation
						End Site
						{
							OFFSET 0.000000 0.000000 0.000000
						}
					}
				}
				JOINT LeftUpArm_virtual
				{
					OFFSET 0.000000 0.000000 0.000000
					CHANNELS 3 Zrotation Yrotation Xrotation
					JOINT LeftUpArm
					{
						OFFSET 1.248820 0.000000 0.000000
						CHANNELS 3 Zrotation Yrotation Xrotation
						JOINT LeftForeArm
						{
							OFFSET 2.597580 0.000000 0.000000
							CHANNELS 3 Zrotation Yrotation Xrotation
							JOINT LeftHand
							{
								OFFSET 2.455420 0.000000 0.000000
								CHANNELS 3 Zrotation Yrotation Xrotation
								End Site
								{
									OFFSET 0.000000 0.000000 0.000000
								}
							}
						}
					}
				}
				JOINT RightUpArm_virtual
				{
					OFFSET -0.000000 -0.000000 -0.000000
					CHANNELS 3 Zrotation Yrotation Xrotation
					JOINT RightUpArm
					{
						OFFSET -1.248820 -0.000000 -0.000000
						CHANNELS 3 Zrotation Yrotation Xrotation
						JOINT RightForeArm
						{
							OFFSET -2.597580 -0.000000 -0.000000
							CHANNELS 3 Zrotation Yrotation Xrotation
							JOINT RightHand
							{
								OFFSET -2.455420 -0.000000 -0.000000
								CHANNELS 3 Zrotation Yrotation Xrotation
								End Site
								{
									OFFSET 0.000000 0.000000 0.000000
								}
							}
						}
					}
				}
			}
		}
	}
	JOINT LeftUpLeg
	{
		OFFSET 1.271939 0.000000 0.000000
		CHANNELS 3 Zrotation Yrotation Xrotation
		JOINT LeftLowLeg
		{
			OFFSET 0.000000 -4.342910 0.000000
			CHANNELS 3 Zrotation Yrotation Xrotation
			JOINT LeftFoot
			{
				OFFSET 0.000000 -4.487670 0.000000
				CHANNELS 3 Zrotation Yrotation Xrotation
				JOINT LeftToeBase
				{
					OFFSET 0.000000 0.000000 1.515070
					CHANNELS 3 Zrotation Yrotation Xrotation
					End Site
					{
						OFFSET 0.000000 0.000000 0.000000
					}
				}
			}
		}
	}
	JOINT RightUpLeg
	{
		OFFSET -1.271939 0.000000 0.000000
		CHANNELS 3 Zrotation Yrotation Xrotation
		JOINT RightLowLeg
		{
			OFFSET 0.000000 -4.342910 0.000000
			CHANNELS 3 Zrotation Yrotation Xrotation
			JOINT RightFoot
			{
				OFFSET 0.000000 -4.487670 0.000000
				CHANNELS 3 Zrotation Yrotation Xrotation
				JOINT RightToeBase
				{
					OFFSET 0.000000 0.000000 1.515070
					CHANNELS 3 Zrotation Yrotation Xrotation
					End Site
					{
						OFFSET 0.000000 0.000000 0.000000
					}
				}
			}
		}
	}
}
MOTION
Frames: 7
Frame Time: 0.041667
-19.058215 9.176528 34.555621 -174.122914 0.406414 -172.990121 2.406055 -0.306660 -8.026925 4.176149 0.173694 -11.618154 0.000000 0.000000 0.000000 -15.779985 8.105989 32.997822 10.232684 21.025076 -82.141308 -23.859100 8.392550 -12.891700 15.202200 -12.672100 -26.395800 0.000000 -5.813060 0.000000 22.829000 9.417330 23.109600 20.801901 -6.286070 -7.536011 -13.532300 -2.083350 -55.676300 0.000000 14.783500 0.000000 -25.261200 -12.879600 50.161598 6.061398 11.192637 -5.608179 0.000000 0.000000 7.577950 -17.987657 11.286809 0.686885 0.000000 0.000000 -29.752000 5.535807 6.377613 -4.918624 0.000000 0.000000 8.850220 11.765292 -16.740726 5.644566 0.000000 0.000000 -33.729300 
-19.059463 9.176812 34.558177 -174.114107 0.383395 -173.025348 2.395735 -0.322597 -7.921166 4.232430 0.156373 -11.579244 0.000000 0.000000 0.000000 -15.876842 8.131966 32.976946 10.239509 20.894045 -82.188744 -23.835400 8.394310 -12.847100 15.182400 -12.670100 -26.441601 0.000000 -5.893000 0.000000 22.783600 9.438540 23.178801 20.766701 -6.255450 -7.470001 -13.467200 -2.091270 -55.598202 0.000000 14.790700 0.000000 -25.194901 -12.866800 49.916302 6.069663 11.115257 -5.614795 0.000000 0.000000 7.616940 -18.009325 11.340949 0.668044 0.000000 0.000000 -29.732200 5.544525 6.368317 -4.916442 0.000000 0.000000 8.877980 11.761582 -16.775325 5.657747 0.000000 0.000000 -33.749399 
-19.060239 9.177357 34.562058 -174.109586 0.370626 -173.085629 2.371189 -0.319789 -7.768962 4.286160 0.161604 -11.558347 0.000000 0.000000 0.000000 -15.930307 8.079601 32.997602 10.297316 20.782053 -82.192934 -23.778900 8.388400 -12.764500 15.122800 -12.712000 -26.506599 0.000000 -5.905010 0.000000 22.792400 9.370830 23.169201 20.722300 -6.213940 -7.423004 -13.377400 -2.128980 -55.512402 0.000000 14.768400 0.000000 -25.201900 -12.790900 49.838501 6.076155 11.097230 -5.620593 0.000000 0.000000 7.687020 -18.019961 11.354645 0.669606 0.000000 0.000000 -29.668500 5.553434 6.352685 -4.909872 0.000000 0.000000 8.926920 11.751423 -16.799777 5.674007 0.000000 0.000000 -33.721500 
-19.060644 9.178226 34.566844 -174.104970 0.364366 -173.158644 2.338346 -0.311639 -7.617053 4.344860 0.172504 -11.514053 0.000000 0.000000 0.000000 -15.961207 7.934680 33.098059 10.316696 20.670481 -82.172770 -23.760500 8.384770 -12.714900 15.091800 -12.823500 -26.660900 0.000000 -5.853160 0.000000 22.799101 9.298460 23.183300 20.684299 -6.173180 -7.394012 -13.280900 -2.162710 -55.480400 0.000000 14.746900 0.000000 -25.132700 -12.756200 49.832401 6.084743 11.059565 -5.622395 0.000000 0.000000 7.763490 -17.602803 11.536987 0.842422 0.000000 0.000000 -29.972900 5.566517 6.367219 -4.896678 0.000000 0.000000 8.976770 11.758957 -16.854660 5.695371 0.000000 0.000000 -33.727301 
-19.060486 9.178933 34.572532 -174.102676 0.329260 -173.231516 2.303955 -0.294954 -7.454950 4.384999 0.193264 -11.483266 0.000000 0.000000 0.000000 -15.964263 7.743973 33.273513 10.362970 20.579076 -82.104835 -23.714899 8.335820 -12.705900 15.005300 -12.903300 -26.540501 0.000000 -5.903920 0.000000 22.758900 9.372150 23.048401 20.612900 -6.201340 -7.355988 -13.105800 -2.129000 -55.563900 0.000000 14.718500 0.000000 -25.232700 -12.791400 49.817200 6.094675 11.000583 -5.641060 0.000000 0.000000 7.846240 -17.597089 11.584142 0.856038 0.000000 0.000000 -29.951600 5.580603 6.302773 -4.899405 0.000000 0.000000 9.046690 11.744946 -16.850840 5.718190 0.000000 0.000000 -33.715000 
-19.059530 9.179719 34.579440 -174.100258 0.316578 -173.315627 2.286180 -0.272582 -7.285783 4.368596 0.216097 -11.418083 0.000000 0.000000 0.000000 -15.915333 7.434118 33.529374 10.383290 20.530927 -82.044403 -23.674400 8.317060 -12.696200 14.948700 -13.037300 -26.664499 0.000000 -5.935630 0.000000 22.762600 9.363590 23.183001 20.592400 -6.213470 -7.368988 -12.922600 -2.081020 -55.744400 0.000000 14.700100 0.000000 -25.189301 -12.833300 49.771702 6.109183 10.988743 -5.646101 0.000000 0.000000 7.920100 -17.584372 11.608536 0.890619 0.000000 0.000000 -29.965600 5.598987 6.237317 -4.908105 0.000000 0.000000 9.130780 11.716029 -16.828452 5.753309 0.000000 0.000000 -33.735201 
-19.058022 9.180287 34.587718 -174.101382 0.290190 -173.353142 2.267678 -0.258674 -7.154253 4.348599 0.230964 -11.359593 0.000000 0.000000 0.000000 -15.902175 7.182083 33.843577 10.606595 20.416972 -81.864771 -23.609800 8.275490 -12.703200 14.834200 -13.123800 -26.754900 0.000000 -6.010100 0.000000 22.737700 9.365830 23.185699 20.589701 -6.227020 -7.375000 -12.750600 -2.017430 -55.883202 0.000000 14.632600 0.000000 -25.099600 -12.775800 49.560600 6.112381 10.945301 -5.707226 0.000000 0.000000 7.986370 -17.576012 11.655260 0.913130 0.000000 0.000000 -29.935700 5.612988 6.136417 -4.983164 0.000000 0.000000 9.242880 11.710293 -16.778467 5.770994 0.000000 0.000000 -33.743099 
